<svg width="168" height="214" viewBox="0 0 168 214" fill="none" xmlns="http://www.w3.org/2000/svg">
<path d="M35.873 213.052C40.7173 213.052 45.8181 211.885 49.7883 209.602L56.0651 205.995C60.0381 203.716 62.313 200.636 62.313 197.543C62.313 194.934 60.7046 192.575 57.7825 190.894C57.7825 190.894 57.0199 190.454 55.7091 189.702L55.1324 186.762L64.9048 192.377C66.3178 193.187 67.7115 193.595 69.006 193.595C70.0569 193.595 71.0437 193.33 71.9249 192.791L71.9794 192.756L71.989 192.75L83.4403 185.761L83.4656 185.745C85.6864 184.393 86.9581 181.437 86.9581 177.636V134.846L120.674 154.216L111.466 159.481C111.463 159.481 111.463 159.481 111.463 159.481C111.463 159.481 111.459 159.481 111.459 159.484C110.623 159.962 110.162 160.909 110.162 162.146C110.162 164.378 111.684 166.999 113.626 168.115C114.234 168.466 114.836 168.641 115.394 168.641C115.82 168.641 116.221 168.539 116.583 168.331C116.586 168.331 116.586 168.331 116.59 168.331L116.593 168.328L130.953 160.121L137.662 163.976C137.788 164.049 137.925 164.084 138.063 164.084C138.21 164.084 138.358 164.043 138.489 163.96C138.739 163.804 138.883 163.523 138.861 163.227L138.316 155.915L159.578 143.764C159.582 143.764 159.585 143.761 159.585 143.761C160.043 143.496 160.386 143.088 160.604 142.575L167.416 134.052C167.624 133.79 167.649 133.433 167.48 133.15C167.31 132.863 166.98 132.713 166.653 132.77L155.894 134.616C155.381 134.572 154.898 134.667 154.468 134.91C154.465 134.91 154.461 134.913 154.455 134.913L137.471 144.619L133.997 98.1269C133.975 97.8527 133.815 97.6104 133.571 97.4829C133.327 97.3521 133.036 97.3585 132.796 97.4956L86.9581 123.833V102.977C86.9581 95.9141 82.6005 87.6654 77.2465 84.5853L65.6478 77.9214V37.2405C65.6478 37.1831 65.6411 37.1225 65.6282 37.0651C63.2832 26.7407 51.7742 2.19557 51.2868 1.15293C51.1554 0.872344 50.8575 0.703352 50.5566 0.693787C50.2426 0.696975 49.9607 0.87872 49.8322 1.1625C49.3324 2.25616 37.5802 28.0448 35.494 37.0619C35.4812 37.1193 35.4747 37.1799 35.4747 37.2405V60.5835L-18.7253 29.4446C-19.9685 28.7303 -21.1956 28.335 -22.3555 28.2489C-21.6731 26.1476 -21.3142 24.0656 -21.3142 22.162V10.2785C-21.3142 6.60848 -22.599 3.84723 -24.9348 2.50487C-27.2706 1.16569 -30.3177 1.43672 -33.5124 3.2733L-58.1806 17.4462C-64.4637 21.0556 -69.5742 29.8654 -69.5742 37.0874V48.9678C-69.5742 52.641 -68.2894 55.4022 -65.9536 56.7414C-63.7557 58.004 -60.9297 57.8382 -57.9435 56.2854C-59.5455 61.2085 -62.2593 66.0454 -65.7101 70.0789C-65.9504 70.3563 -65.9665 70.7613 -65.755 71.0578C-65.6012 71.2714 -65.3545 71.3926 -65.1013 71.3926C-65.0017 71.3926 -64.9059 71.3735 -64.8098 71.3384C-56.9662 68.2774 -49.3661 59.4612 -45.8257 49.3377L-40.776 46.4361V118.844C-40.776 125.91 -36.4217 134.162 -31.0642 137.238L1.82527 156.137L-0.71553 168.206C-2.19582 168.713 -3.59602 169.334 -4.87124 170.064L-11.148 173.674C-15.1211 175.956 -17.3959 179.037 -17.3959 182.123C-17.3959 184.731 -15.7875 187.091 -12.8625 188.771L25.1057 210.59C27.9846 212.242 31.8394 213.055 35.873 213.052ZM115.792 166.949C115.478 167.131 114.978 167.051 114.427 166.735C112.985 165.906 111.764 163.805 111.764 162.147C111.764 161.513 111.947 161.044 112.261 160.865C112.373 160.798 112.508 160.766 112.661 160.766C112.937 160.766 113.27 160.872 113.626 161.079C115.068 161.908 116.289 164.009 116.289 165.667C116.289 166.299 116.109 166.767 115.792 166.949ZM132.559 159.204L136.776 156.797L137.15 161.844L132.559 159.204ZM164.853 134.697L164.276 135.421C164.174 135.227 164.061 135.038 163.939 134.853L164.853 134.697ZM162.161 135.16C162.594 135.628 162.943 136.231 163.142 136.84L160.736 139.85C160.399 138.348 159.502 136.833 158.355 135.813L162.161 135.16ZM155.131 136.368L155.917 136.234C156.131 136.276 156.368 136.368 156.618 136.511C158.06 137.34 159.281 139.442 159.281 141.1C159.281 141.358 159.249 141.588 159.191 141.782L158.65 142.461L117.888 165.753C117.888 165.721 117.891 165.696 117.891 165.667C117.891 163.435 116.369 160.811 114.427 159.698C114.405 159.685 114.385 159.676 114.363 159.663L155.131 136.368ZM86.9587 125.674L132.492 99.512L135.929 145.5L122.28 153.299L86.9584 133.004V125.674H86.9587ZM44.9181 16.3462C47.2571 10.8269 49.4711 5.85598 50.5701 3.41358C51.6915 5.84323 53.9472 10.795 56.3182 16.3526C56.8244 17.6216 55.4979 18.559 54.8956 18.9034C52.5762 20.2362 48.6605 20.2362 46.341 18.9034C45.738 18.559 44.4087 17.6216 44.9181 16.3462ZM37.0778 37.3329C38.0165 33.3377 40.9258 25.8926 43.8668 18.8428C44.2609 19.3816 44.8216 19.8727 45.5397 20.284C46.962 21.1034 48.7915 21.5116 50.6182 21.5116C52.4448 21.5116 54.274 21.1034 55.6966 20.284C56.4175 19.8695 56.9782 19.3784 57.3723 18.8396C60.2207 25.6343 63.0211 32.885 64.0464 37.3298V37.3361C63.1076 38.0185 61.9702 38.3947 60.8007 38.3947C59.519 38.3947 58.3207 37.9706 57.3307 37.1703C57.1064 36.9886 56.802 36.9439 56.5329 37.0492C56.2637 37.1512 56.0714 37.3935 56.033 37.6773C55.6517 40.362 53.3061 42.3867 50.5765 42.3867C47.7121 42.3867 45.3539 40.2504 45.0911 37.4158C45.0623 37.1129 44.8636 36.8515 44.5785 36.7431C44.2901 36.6347 43.9697 36.6984 43.7451 36.9057C42.7198 37.8654 41.3805 38.3947 39.9739 38.3947C38.939 38.3947 37.9457 38.1109 37.0774 37.5753V37.3329H37.0778ZM37.0778 39.3736C37.9813 39.7753 38.9617 39.989 39.9742 39.989C41.3263 39.989 42.6272 39.6095 43.7518 38.9081C44.6201 41.8766 47.3497 43.981 50.5765 43.981C53.6812 43.981 56.4015 41.9499 57.3403 39.093C58.3909 39.6765 59.5863 39.989 60.8007 39.989C61.9349 39.989 63.0467 39.7116 64.0464 39.1982V77.0012L37.0778 61.505V39.3736ZM-19.5222 30.8252L76.4465 85.9673C81.3583 88.7923 85.357 96.4224 85.357 102.978V177.637C85.357 180.87 84.3637 183.329 82.6175 184.393L74.6618 189.249C75.1521 187.945 75.418 186.402 75.418 184.683V110.025C75.418 102.959 71.0601 94.7069 65.7061 91.6332L-28.0322 37.7761L-30.2622 36.4944C-31.2266 35.9396 -32.1814 35.5761 -33.1042 35.4007L-24.9562 30.4266L-24.9018 30.3916C-23.4632 29.5115 -21.5503 29.6646 -19.5222 30.8252ZM-40.7747 44.5964L-46.8849 48.1069C-47.0547 48.2057 -47.1829 48.3588 -47.2438 48.5405C-50.0826 56.853 -55.9973 64.499 -62.2933 68.3093C-59.3359 64.1897 -57.0867 59.5058 -55.8371 54.8219C-55.757 54.5094 -55.8691 54.1778 -56.1255 53.9833C-56.385 53.7888 -56.7342 53.7665 -57.013 53.9259L-58.1793 54.5955C-60.8579 56.1356 -63.3346 56.4066 -65.1513 55.3608C-66.9712 54.3181 -67.9709 52.0479 -67.9709 48.9678V37.0874C-67.9709 30.3756 -63.2193 22.1811 -57.3783 18.8268L-32.7101 4.65392C-30.0315 3.11387 -27.5548 2.84284 -25.7345 3.88549C-23.9178 4.93132 -22.9149 7.20154 -22.9149 10.2785V22.162C-22.9149 24.0815 -23.3219 26.221 -24.0876 28.3668C-24.6708 28.4976 -25.2251 28.7176 -25.7442 29.0364L-37.2467 36.0607C-37.25 36.0607 -37.25 36.0607 -37.25 36.0607C-37.2532 36.0639 -37.2532 36.0639 -37.2564 36.0639L-37.2884 36.0862C-37.2919 36.0862 -37.2919 36.0862 -37.2919 36.0894C-39.5059 37.4445 -40.7747 40.3971 -40.7747 44.1882V44.5964ZM-30.2622 135.858C-35.1773 133.036 -39.1731 125.403 -39.1731 118.844V44.1882C-39.1731 40.9583 -38.1795 38.4967 -36.4464 37.4382C-36.4429 37.4382 -36.4429 37.4382 -36.4397 37.435C-36.4397 37.435 -36.4397 37.435 -36.4365 37.435L-36.414 37.4222C-34.9722 36.5581 -33.0722 36.7207 -31.0632 37.875L-28.8332 39.1568L64.9051 93.0138C69.8169 95.8357 73.8159 103.466 73.8159 110.025V184.683C73.8159 187.878 72.8384 190.33 71.1341 191.405L71.089 191.43C71.089 191.434 71.089 191.434 71.0858 191.434C69.6407 192.314 67.7311 192.16 65.7061 190.997L54.4406 184.527C54.4342 184.521 54.4278 184.518 54.4214 184.511C54.4147 184.508 54.4118 184.505 54.4086 184.505L33.7711 172.65L33.7619 172.643L-30.2622 135.858ZM54.8443 193.614L35.873 204.516L34.2422 174.761L53.29 185.701L54.8443 193.614ZM0.746796 169.022C0.753525 169.006 0.759941 168.99 0.763145 168.974L3.28795 156.975L32.5856 173.811L34.2646 204.43L-2.28393 183.431L0.746796 169.022ZM-15.7926 182.123C-15.7926 179.62 -13.8096 177.044 -10.3457 175.054L-4.07214 171.445C-3.14937 170.916 -2.15322 170.45 -1.10517 170.042L-3.97279 183.67C-4.04328 184.008 -3.8895 184.352 -3.58833 184.524L34.742 206.544C34.7516 206.551 34.7612 206.554 34.7708 206.557C34.8157 206.579 34.8605 206.598 34.9086 206.615C34.9246 206.618 34.941 206.624 34.9567 206.627C35.0175 206.643 35.0784 206.653 35.1425 206.653C35.1585 206.653 35.1713 206.653 35.1873 206.653C35.2418 206.649 35.2963 206.64 35.3475 206.627C35.3508 206.624 35.3507 206.624 35.3543 206.624C35.4148 206.608 35.4693 206.582 35.5238 206.554C35.5305 206.551 35.5366 206.551 35.5433 206.544L56.1391 194.712C56.4371 194.543 56.5905 194.205 56.5268 193.87L56.1167 191.778C56.6706 192.097 56.9782 192.276 56.9782 192.276C59.388 193.656 60.711 195.528 60.711 197.543C60.711 200.049 58.728 202.629 55.2641 204.615L48.9873 208.222C42.153 212.15 31.7974 212.593 25.9084 209.21L-12.0599 187.391C-14.4661 186.01 -15.7926 184.138 -15.7926 182.123Z" fill="#514D4D"/>
</svg>
